inDegrees=no
num_controls=7
num_derivatives=13
num_iterations=76
num_multipliers=7
num_parameters=0
num_slacks=7
num_states=26
objective=0.501183
objective_accelerations=0.069790
objective_balance=0.002531
objective_effort=0.063735
objective_height=0.354016
objective_ligament=0.011112
solver_duration=1058.712929
status=Solve_Succeeded
success=true
DataType=double
version=3
OpenSimVersion=4.5
endheader
time	/jointset/ground_pelvis/pelvis_tilt/value	/jointset/ground_pelvis/pelvis_tx/value	/jointset/ground_pelvis/pelvis_ty/value	/jointset/hip_l/hip_flexion_l/value	/jointset/hip_l/hip_adduction_l/value	/jointset/hip_l/hip_rotation_l/value	/jointset/back/lumbar_extension/value	/jointset/patellofemoral_l/patellar_flexion_l/value	/jointset/knee_l/knee_flexion_l/value	/jointset/knee_l/knee_adduction_l/value	/jointset/knee_l/knee_rotation_l/value	/jointset/ankle_l/ankle_angle_l/value	/jointset/subtalar_l/subtalar_angle_l/value	/jointset/ground_pelvis/pelvis_tilt/speed	/jointset/ground_pelvis/pelvis_tx/speed	/jointset/ground_pelvis/pelvis_ty/speed	/jointset/hip_l/hip_flexion_l/speed	/jointset/hip_l/hip_adduction_l/speed	/jointset/hip_l/hip_rotation_l/speed	/jointset/back/lumbar_extension/speed	/jointset/patellofemoral_l/patellar_flexion_l/speed	/jointset/knee_l/knee_flexion_l/speed	/jointset/knee_l/knee_adduction_l/speed	/jointset/knee_l/knee_rotation_l/speed	/jointset/ankle_l/ankle_angle_l/speed	/jointset/subtalar_l/subtalar_angle_l/speed	/forceset/tau_hip_flexion_l	/forceset/tau_hip_adduction_l	/forceset/tau_hip_rotation_l	/forceset/tau_knee_flexion_l	/forceset/tau_ankle_angle_l	/forceset/tau_subtalar_angle_l	/forceset/tau_lumbar_extension	lambda_cid13_p0	lambda_cid13_p1	lambda_cid13_p2	lambda_cid13_p3	lambda_cid13_p4	lambda_cid13_p5	lambda_cid14_p0	/jointset/ground_pelvis/pelvis_tilt/accel	/jointset/ground_pelvis/pelvis_tx/accel	/jointset/ground_pelvis/pelvis_ty/accel	/jointset/hip_l/hip_flexion_l/accel	/jointset/hip_l/hip_adduction_l/accel	/jointset/hip_l/hip_rotation_l/accel	/jointset/back/lumbar_extension/accel	/jointset/patellofemoral_l/patellar_flexion_l/accel	/jointset/knee_l/knee_flexion_l/accel	/jointset/knee_l/knee_adduction_l/accel	/jointset/knee_l/knee_rotation_l/accel	/jointset/ankle_l/ankle_angle_l/accel	/jointset/subtalar_l/subtalar_angle_l/accel	gamma_cid13_p0	gamma_cid13_p1	gamma_cid13_p2	gamma_cid13_p3	gamma_cid13_p4	gamma_cid13_p5	gamma_cid14_p0
0	-0.03648306685787379	0.05652939601895658	0.9203477189662577	0.3085816938045678	-0.2955431235101892	-0.2994785347154697	-0.3879492264334186	0.2499269421185101	0.2499269421184919	-0.1745301392400087	-0.1724439861099591	-0.0008036623358878681	0.0005111857479796286	0	0	0	0	0	0	0	0	0	0	0	0	0	0.1034784748727652	-0.03021058844810234	-0.01910204491894987	-0.2358985766410219	0.1492623675481537	-0.03479801210924708	-0.03758215597857909	4.704519180855342	11.30951942362221	1.145985781148055	39.86786155583683	-592.387738856887	-54.8113544605494	-23.12624668850845	-2.76761508527227	-3.30135569820398	-1.408294902849136	14.69147331160031	-0.8847346698188627	4.100710356660337	-8.830938691785267	12.32927143185613	12.32927143185673	2.107290702796455	-0.2935233280333642	1.138194165141326	-0.5738696481781096	1.497784560103138e-08	2.307374020420996e-07	1.230937828812992e-07	-3.924222555360532e-08	3.032740266197756e-07	1.24472971104289e-08	-2.397881605153337e-10
0.01	-0.03661392669968144	0.05636647453306249	0.920278952167266	0.3092976013159063	-0.2955872673641562	-0.299273817500028	-0.3883866189126521	0.2505308294935463	0.2505308294934993	-0.1744289481548757	-0.1724550477666874	-0.0007489476706078123	0.0004818329370342868	-0.02592495258088611	-0.03239408231047918	-0.01368579506967207	0.1422878150016718	-0.008720917305049545	0.04070847929030027	-0.08651104883473289	0.1201131225954164	0.1201131225954289	0.02022331904538285	-0.002173231276358699	0.01091855718498585	-0.005764900479638446	0.08624651403956583	-0.03144693210481369	-0.01638533038350499	-0.2159027843528188	0.122268523078518	-0.02069710425557207	-0.02322576808814151	-3.637472911960157	6.538313640232702	2.029785256517498	42.80044238499467	-597.0801485248131	-63.13205320431027	-23.13350370594465	-2.467898680588481	-3.179910117025278	-1.338526444953868	13.8633726964588	-0.8496473856773273	4.020664566241905	-8.41607092654367	11.75267986070933	11.75267986071006	1.977668441225642	-0.1733441120866878	1.065038203509813	-0.5620025688283374	-1.92088020524686e-08	2.910191568992838e-07	1.904742984073117e-07	1.63007808090578e-08	9.896908130778569e-08	-1.852892435692672e-08	3.19440443812376e-09
0.02	-0.03699662873453442	0.05588531710015103	0.920075366490392	0.3114095743976473	-0.2957153958161383	-0.2986690659214729	-0.3896600984696849	0.2523159175319423	0.2523159175319457	-0.1741259606920627	-0.1724866659531718	-0.0005857770918107573	0.0003979906570981955	-0.0503684386053283	-0.06364718940347601	-0.02696377557648949	0.2792131140836755	-0.01679691960326646	0.08000687262167953	-0.1672174155584383	0.2362401326838263	0.2362401326838181	0.04035927552341893	-0.004111305938687748	0.02169118270326936	-0.01089789379814576	0.06901455320629356	-0.0326832757615446	-0.0136686158475915	-0.1959069920647498	0.09527467860884817	-0.006596196401934875	-0.008869380197721068	-11.88068073641391	1.754095286173126	2.910764445822378	45.65795117920798	-600.2448330377817	-71.33550174688239	-23.15468054264223	-2.471321773982936	-3.073160654707995	-1.326731990278216	13.61897012766677	-0.7557516684523509	3.818693164876143	-7.670002269579446	11.53204893045495	11.53204893044886	2.089818189327099	-0.2464920052274831	1.109007831800309	-0.44748821595209	-5.339544970596858e-08	3.51300911756468e-07	2.578548139333242e-07	7.184378717172091e-08	-1.053358640042042e-07	-4.950514582428233e-08	6.628597036762854e-09
0.03	-0.03761859089270631	0.05509795073268178	0.9197403062487164	0.3148667413542756	-0.2959217072267805	-0.2976772682480532	-0.3917155006700329	0.2552440498266775	0.2552440498266984	-0.1736233580601573	-0.172536043833608	-0.0003145789911539688	0.0002656417366378049	-0.07394178552540849	-0.09357265978718161	-0.04004337222541857	0.4115086186274138	-0.02444490986273569	0.1181843502997343	-0.2433496817616002	0.3488689928243152	0.3488689928242737	0.0599696372665339	-0.005728901564915869	0.03261790855915604	-0.0155258836122179	0.06645120465777819	-0.02858022567400054	-0.01402319264629923	-0.199757231840646	0.1062091101461625	-0.0118210916315013	-0.005254678331513932	-8.518050665152732	3.470467008071271	2.596040644550221	41.45292843597574	-601.0640312409841	-67.10086127670412	-23.18856181563459	-2.28801829129615	-2.914211992895391	-1.2978603148929	12.92808024027288	-0.7663393655694201	3.79200434690871	-7.507837382361345	11.05070320019989	11.05070320019918	1.867985812587943	-0.1140538828708511	1.094933418527483	-0.4636389051739042	-8.956600603449144e-08	2.454444860138508e-07	3.721764224045609e-07	9.401438452734699e-08	-2.542575266132626e-07	-1.375433787422212e-07	-1.713012810144939e-08
